<svg width="61" height="51" viewBox="0 0 61 51" fill="none" xmlns="http://www.w3.org/2000/svg">
<path fill-rule="evenodd" clip-rule="evenodd" d="M15.1681 0.693715C25.3701 -0.231238 35.6299 -0.231238 45.8319 0.693714L50.7247 1.13731C55.4063 1.56176 59.1989 5.27739 59.8977 10.1241C61.3674 20.3174 61.3674 30.6826 59.8977 40.8759C59.7692 41.7676 59.5359 42.621 59.2116 43.4227C58.9966 43.9542 58.3332 44.0349 57.9611 43.608L43.6369 27.1743C42.9897 26.4318 41.9834 26.1575 41.0706 26.4748L32.8714 29.3253L20.977 15.369C20.5324 14.8474 19.9012 14.5401 19.2323 14.5196C18.5634 14.4991 17.916 14.7672 17.4428 15.2607L1.52238 31.8652C1.0324 32.3763 0.196746 32.051 0.15768 31.3294C-0.225372 24.2544 0.0894868 17.1484 1.10225 10.1241C1.80106 5.27739 5.59371 1.56176 10.2753 1.13731L15.1681 0.693715ZM36.9794 15.3632C36.9794 12.564 39.1551 10.2948 41.839 10.2948C44.5229 10.2948 46.6986 12.564 46.6986 15.3632C46.6986 18.1624 44.5229 20.4316 41.839 20.4316C39.1551 20.4316 36.9794 18.1624 36.9794 15.3632Z" fill="#403128"/>
<path d="M1.21717 39.3514C1.03784 39.5384 0.952653 39.8023 0.988375 40.0642C1.0253 40.3349 1.06326 40.6054 1.10225 40.8759C1.80106 45.7226 5.59371 49.4382 10.2753 49.8627L15.1681 50.3063C25.3701 51.2312 35.6299 51.2312 45.8319 50.3063L50.7247 49.8627C52.1004 49.738 53.3993 49.3291 54.5655 48.6908C55.0075 48.4489 55.0819 47.8394 54.7462 47.4543L41.4607 32.2123C41.245 31.9648 40.9095 31.8734 40.6053 31.9792L32.8882 34.6621C31.9661 34.9826 30.9495 34.6992 30.3038 33.9415L19.6276 21.4147C19.3179 21.0514 18.779 21.0349 18.4495 21.3786L1.21717 39.3514Z" fill="#403128"/>
</svg>
