<svg width="578" height="404" viewBox="0 0 578 404" fill="none" xmlns="http://www.w3.org/2000/svg">
<path d="M72.4821 33.0371C67.408 65.625 63.9879 98.6287 62.0909 131.566C61.6891 138.501 61.5396 149.329 69.8936 151.692C76.6311 153.581 84.0693 148.781 89.3397 145.078C106.104 133.456 120.261 117.63 133.652 102.276C136.52 98.9877 139.875 95.7185 142.314 92.0714C144.061 89.4636 143.65 86.0432 142.94 83.0953C140.968 74.9412 134.829 67.9777 128.923 62.4881C114.093 48.7594 95.4977 39.3109 77.3319 31.0245C73.5287 29.286 70.1927 34.9835 74.0333 36.6936C89.9658 44.0635 106.188 52.1987 119.868 63.414C126.017 68.4407 132.53 74.4877 135.67 82.0276C136.003 82.8635 136.287 83.7185 136.52 84.5882C136.702 85.241 136.83 85.9078 136.903 86.5818C136.903 87.1487 136.903 87.7062 136.903 88.2731C136.903 89.0479 137.277 88.2731 136.903 88.6132C136.717 88.7644 138.52 86.629 136.847 88.4243C135.334 90.0494 133.969 91.8635 132.521 93.5548C120.569 107.529 108.047 121.315 94.012 133.239C88.5641 137.849 81.864 143.755 74.7154 145.267C72.7624 145.682 71.258 145.692 70.2487 144.454C68.7349 142.564 68.4546 139.097 68.4359 136.432C68.3425 125.198 69.7815 113.756 70.772 102.588C71.7999 90.9533 73.0054 79.3379 74.3884 67.7415C75.6873 56.7528 77.0796 45.7642 78.7803 34.8323C79.4438 30.6277 73.1456 28.8325 72.4821 33.0371Z" fill="#403128"/>
<path d="M253.325 38.8559C257.932 68.4298 261.025 98.3816 263.015 128.201C263.38 133.71 264.707 140.484 263.015 145.955C262.324 148.223 261.576 149.224 259.791 149.517C254.942 150.301 247.503 144.632 243.317 141.486C228.244 130.147 215.283 115.653 202.874 101.462C200.887 99.1815 198.918 96.8856 196.968 94.5738C196.342 93.8368 195.314 91.9471 194.417 91.5125C192.072 90.3598 196.08 93.4022 195.165 92.6747C194.679 92.3062 195.165 93.1565 195.165 92.3345C195.024 91.0875 195.164 89.8244 195.576 88.6402C197.445 81.3459 203.556 75.0721 209.125 70.1116C223.348 57.4412 241 48.6446 258.137 40.8212C261.969 39.0732 258.642 33.3758 254.839 35.1521C237.878 42.8904 220.899 51.6209 206.518 63.7244C199.977 69.2234 193.529 75.828 190.287 83.9348C189.063 86.9772 187.848 91.1629 188.904 94.4604C189.838 97.3611 193.062 100.13 194.968 102.322C207.92 117.439 221.544 132.557 237.168 144.991C243.055 149.659 250.353 155.498 258.147 156.093C265.716 156.679 269.36 150.566 270.061 143.697C271.108 133.303 269.211 122.258 268.351 111.912C267.311 99.4524 266.065 87.015 264.613 74.5997C263.165 62.0804 261.595 49.5705 259.661 37.1174C258.978 32.9223 252.671 34.6986 253.325 38.8559Z" fill="#403128"/>
<path d="M255.548 168.537C255.021 162.426 253.763 156.589 251.879 151.056L221.472 123.5C222.031 124.009 199.127 97.8154 200.47 98.4011C199.156 97.8178 197.833 97.26 196.5 96.7282C177.739 89.2408 155.91 86.4491 135.887 90.7601C135.887 90.7601 108.737 122.686 99.5021 130L80.2436 143.489C79.822 145.017 79.4423 146.558 79.1042 148.109C76.3009 160.827 76.0392 174.13 75.5253 187.094C75.1702 196.164 75.1515 205.235 75.2169 214.315C75.2169 218.954 75.301 223.537 74.2264 227.94C72.7967 233.845 70.04 239.401 67.4609 244.862C62.0224 256.38 56.939 267.019 57.9949 280.171C58.4575 285.456 59.559 290.663 61.2748 295.676C62.2093 298.511 63.069 303.046 64.7697 305.474C64.8625 305.729 64.9192 305.997 64.9379 306.268C64.6295 306.268 66.7414 303.915 66.8068 304.378C65.9439 304.003 65.1016 303.58 64.2838 303.112C61.3216 300.911 58.8359 297.736 56.6306 294.797C50.6127 286.766 45.4919 277.412 43.1277 267.567C42.1372 263.438 41.5578 258.846 42.8661 254.726C44.5761 249.293 50.052 246.223 52.9395 241.442C57.4249 234.006 57.8174 224.151 52.9395 216.781C50.8837 213.682 46.9029 212.057 43.4454 211.225C34.2878 208.977 25.2423 212.482 18.0469 218.189C9.28176 225.134 2.16121 234.251 0.49788 245.59C-0.922492 255.425 0.862318 265.592 3.74978 275.05C9.67423 294.731 20.2149 313.619 33.0543 329.521C36.6146 333.933 40.7822 339.243 46.1367 341.426C51.7434 343.694 58.2846 344.043 64.2277 344.601C85.1128 346.538 106.222 346.547 127.173 346.547C136.275 346.547 145.396 346.324 154.517 346.165C159.129 346.084 168.452 370.977 184.748 382.852C204.803 397.465 238.493 399.643 238.493 399.643L248.57 342.551C257.831 340.265 252.913 336.295 258.015 327.376C260.585 322.888 261.968 317.181 263.472 312.258C264.653 308.512 265.553 304.681 266.163 300.797C267.528 291.594 266.733 282.297 265.827 273.085C263.958 253.97 261.613 234.913 259.744 215.798C258.205 200.051 256.806 184.303 255.548 168.556C255.212 164.342 248.661 164.304 249.007 168.556C251.162 195.289 253.704 221.984 256.632 248.641C258.034 261.331 259.865 274.086 260.314 286.861C260.662 294.229 259.781 301.605 257.707 308.677C256.435 313.261 254.925 317.775 253.184 322.198C251.07 327.402 249.028 373.915 241.852 392.927C238.493 399.643 225.057 396.285 225.057 396.285L194.825 386.21L174.671 369.418C166.663 368.984 154.517 339.193 154.517 339.193C133.501 339.505 115.754 340.075 94.747 339.527C85.253 339.281 75.7589 338.931 66.2929 338.128C60.5553 337.646 53.7899 337.514 48.3887 335.209C44.3425 333.48 40.1188 327.915 37.1752 324.173C31.1694 316.511 25.853 308.321 21.2895 299.701C12.4963 283.374 2.40417 261.113 7.9268 242.131C10.9451 231.738 21.3082 221.345 31.4657 218.066C34.8879 216.916 38.5625 216.772 42.0624 217.65C44.0996 218.189 45.5947 219.379 47.4729 220.126C48.0243 220.343 47.0431 219.634 47.0337 219.616C47.5103 220.56 48.2018 221.458 48.6504 222.45C49.5718 224.541 50.0479 226.804 50.0479 229.092C50.0479 231.381 49.5718 233.644 48.6504 235.735C46.2488 241.205 40.9131 244.125 38.1751 249.256C36.3527 252.809 35.4828 256.784 35.6521 260.783C35.895 270.316 39.8758 279.68 44.4173 287.881C48.3513 294.968 53.2105 302.385 59.4713 307.61C62.7139 310.321 70.9184 313.732 71.4697 306.589C71.6566 304.133 70.3671 301.515 69.5261 299.285C67.9392 295.269 66.6309 291.146 65.6107 286.946C64.2114 280.974 64.0144 274.779 65.0313 268.729C66.2275 262.115 69.2831 256.314 72.1519 250.295C74.9553 244.446 77.8801 238.541 79.8238 232.343C83.1504 221.723 81.5992 209.912 81.7581 198.961C81.945 185.847 82.4029 172.581 83.8419 159.542C84.3406 154.552 85.2864 149.628 86.6631 144.828C87.8303 140.759 109.131 126.75 109.131 126.75L135.887 97.8154C146.353 95.2772 157.508 94.7978 168.457 96.2085C179.311 97.6061 190.266 100.76 200.47 105.553C210.14 110.096 218.263 126.75 218.263 126.75C218.263 126.75 236.977 134.89 240.731 141.622C241.644 143.26 242.498 144.937 243.288 146.654C246.442 153.566 248.384 160.98 249.026 168.565C249.371 172.741 255.913 172.779 255.548 168.537Z" fill="#403128"/>
<path d="M161.2 177.265C160.555 189.86 140.642 189.879 139.997 177.265C139.782 173.032 133.241 173.004 133.456 177.265C134.53 198.364 166.666 198.373 167.741 177.265C167.956 173.014 161.415 173.023 161.2 177.265Z" fill="#403128"/>
<path d="M188.995 177.265C188.35 189.86 168.437 189.879 167.792 177.265C167.577 173.032 161.036 173.004 161.251 177.265C162.325 198.364 194.461 198.373 195.536 177.265C195.751 173.014 189.209 173.023 188.995 177.265Z" fill="#403128"/>
<path d="M217.687 154.96C217.445 149.812 215.232 144.961 211.515 141.434C207.798 137.908 202.87 135.981 197.774 136.063C187.159 136.063 178.3 144.123 177.861 154.96C177.683 159.212 184.224 159.212 184.402 154.96C185.056 138.983 210.492 138.964 211.146 154.96C211.324 159.202 217.865 159.221 217.687 154.96Z" fill="#403128"/>
<path d="M147.479 154.346C147.237 149.198 145.024 144.347 141.307 140.82C137.591 137.293 132.663 135.367 127.566 135.449C116.951 135.449 108.092 143.508 107.653 154.346C107.475 158.598 114.017 158.598 114.194 154.346C114.848 138.368 140.284 138.349 140.938 154.346C141.116 158.588 147.657 158.607 147.479 154.346Z" fill="#403128"/>
<path d="M174.436 169.076C174.128 171.429 168.353 173.234 166.587 173.517C163.251 174.056 157.308 172.941 155.374 169.643C154.86 168.755 154.626 170.163 155.168 169.369C155.542 168.821 156.85 168.575 157.439 168.424C159.509 167.81 161.654 167.492 163.812 167.479C165.681 167.479 174.091 167.366 174.53 169.983C175.212 174.169 181.52 172.393 180.837 168.226C179.604 160.724 166.821 160.497 161.419 160.998C156.429 161.461 146.543 163.681 148.617 170.871C150.542 177.57 159.99 180.679 166.064 180.225C172.138 179.772 180.081 175.889 180.968 169.105C181.529 164.872 174.988 164.919 174.436 169.076Z" fill="#403128"/>
<path d="M148.527 92.069L148.172 111.911C148.098 116.172 154.637 116.172 154.712 111.911L155.067 92.069C155.142 87.8077 148.602 87.8077 148.527 92.069Z" fill="#403128"/>
<path d="M160.567 92.0677L160.212 111.91C160.137 116.171 166.677 116.171 166.751 111.91L167.106 92.0677C166.905 90.9985 160.641 87.8064 160.567 92.0677Z" fill="#403128"/>
<path d="M172.277 94.2498V111.911C172.202 116.172 178.742 116.172 178.816 111.911V94.2498C178.891 89.9885 172.351 89.9885 172.277 94.2498Z" fill="#403128"/>
<path d="M420.818 10.6803C417.781 10.6331 412.548 10.6331 410.539 13.5149C410.49 13.5854 410.44 13.6532 410.389 13.7182C405.237 22.4099 405.646 33.5371 406.166 43.3061C406.399 47.8603 405.838 48.1772 406.166 52.722L399.811 50.6208C399.624 45.3674 400.148 51.0066 399.811 45.7627C399.061 34.259 398.643 21.1443 404.512 10.8475C404.607 10.6083 404.736 10.366 404.904 10.1229C412.651 -0.941338 432.797 4.78446 442.955 8.23317C460.915 14.2991 476.044 25.4011 488.426 39.8101C496.677 49.4382 509.339 65.5762 505.442 79.4939C501.676 92.9108 484.407 89.1314 475.063 85.352C458.169 78.4851 443.001 66.3607 430.918 52.5099C429.282 57.0568 427.024 61.3785 424.546 65.4817L419.753 60.578C422.73 55.7006 424.937 50.3832 426.294 44.8178C426.798 42.5407 430.218 41.4731 431.76 43.3628C443.889 58.4331 459.831 72.3792 477.95 79.4466C485.071 82.2151 500.377 86.174 499.443 73.6169C498.406 59.841 486.36 46.5942 477.24 37.4669C466.384 26.4044 452.982 18.2393 438.236 13.7039C432.601 11.8655 426.736 10.8474 420.818 10.6803Z" fill="#403128"/>
<path d="M314.902 0.268222C325.555 -0.534902 342.375 -0.270344 347.047 11.8427C347.18 12.1889 347.253 12.5179 347.275 12.8276C350.447 25.0865 347.771 37.6552 344.048 49.3722L337.02 52.0001C340.123 42.0792 343.608 23.9273 340.702 13.6095C340.673 13.5082 340.649 13.4082 340.629 13.3098C338.574 8.80033 331.775 7.59546 327.526 7.07115C319.855 6.1263 311.902 6.93887 304.352 8.37505C288.474 11.3169 273.235 17.0747 259.339 25.3824C254.023 28.6576 244.663 34.8775 243.031 42.1724L256.777 35.7501L260.734 55.8199C265.364 55.798 269.94 55.1256 273.179 54.6066C288.831 52.0799 303.952 46.9121 317.911 39.3189C318.408 39.037 318.969 38.8899 319.539 38.8918C320.11 38.8936 320.67 39.0445 321.165 39.3297C321.661 39.6149 322.075 40.0248 322.367 40.5196C322.66 41.0143 322.821 41.5772 322.835 42.1535C323.527 53.0854 323.088 50.8465 324.181 61.7501L317.911 65.0001C317.054 56.1474 316.972 53.8282 316.587 47.4182C299.888 55.8482 280.44 62.0728 261.9 62.1938C260.869 62.2011 259.81 62.1747 258.736 62.1096L255.366 40.5196L237.518 48.7501L236.291 44.5442C236.153 31.8778 250.081 22.8118 259.704 17.4929C276.477 8.22387 295.783 1.69495 314.902 0.268222Z" fill="#403128"/>
<path d="M576.475 237.549C575.363 231.218 570.728 225.577 566.448 221.089C560.63 214.994 553.818 209.957 546.311 206.198C539.059 202.599 530.874 200.057 522.706 200.766C517.838 201.191 510.101 202.57 508.372 208.135C506.951 212.727 510.867 217.026 513.736 220.022C518.352 224.84 523.575 229.054 527.874 234.194C532.789 240.081 534.518 245.533 532.855 253.167C530.637 262.544 526.096 271.196 519.66 278.309C514.735 283.865 507.634 290.394 499.803 290.687C498.987 290.559 498.161 290.509 497.336 290.536L496.532 290.337C497.641 291.125 498.055 292.019 497.775 293.021C498.04 292.346 498.24 291.647 498.373 290.933C499.308 288.041 500.522 285.264 501.485 282.372C507.269 265.119 506.98 246.043 494.346 231.832C482.076 218.028 474.386 200.784 468.358 183.399C465.095 174.105 462.436 164.604 460.397 154.959C458.668 146.616 458.164 138.273 457.173 129.826C453.921 102.085 443.651 73.6074 421.411 55.7214C412.684 48.7591 402.568 43.7922 391.759 41.1629C380.951 38.5335 369.707 38.304 358.803 40.4903C335.591 44.95 315.369 59.6803 301.895 79.0592C294.059 90.5373 288.359 103.364 285.074 116.91C281.467 131.328 281.056 146.011 280.178 160.77C276.683 219.644 271.301 278.423 265.862 337.136C265.737 338.459 265.613 339.782 265.488 341.104C265.488 341.828 265.722 342.532 266.156 343.107C266.59 343.683 267.199 344.098 267.89 344.288C283.252 346.84 298.83 348.38 314.351 349.466C343.693 351.526 373.81 351.866 402.788 346.169C409.681 344.863 416.466 343.027 423.084 340.679C424.635 340.112 426.215 339.177 427.654 338.922C429.132 338.833 430.615 338.887 432.083 339.082C444.829 339.517 457.584 339.885 470.34 340.027C498.523 340.433 527.509 339.243 550.394 320.403C574.793 300.315 580.736 267.604 576.494 237.511C575.905 233.316 569.597 235.101 570.186 239.268C573.877 265.46 569.13 293.928 549.264 312.655C528.182 332.497 499.308 333.801 472.068 333.442C459.416 333.281 446.773 332.922 434.12 332.497C431.859 332.421 429.298 331.977 427.037 332.251C424.14 332.601 421.103 334.386 418.318 335.303C415.188 336.333 412.02 337.193 408.824 338.024C381.015 344.922 351.524 344.884 323.088 343.353C305.168 342.526 287.305 340.71 269.581 337.911L271.983 341.095C276.758 290.196 281.206 239.259 284.85 188.265C286.906 159.428 285.523 128.928 296.858 101.821C306.24 79.4466 323.565 60.0771 346.207 51.0254C366.082 43.0887 388.79 43.5895 407.628 54.1812C430.55 67.0879 443.296 91.758 448.548 116.995C450.295 125.395 450.847 133.823 451.781 142.326C452.764 150.708 454.36 159.005 456.556 167.148C461.369 185.497 468.116 203.846 477.712 220.22C479.627 223.511 481.723 226.691 483.992 229.744C486.702 233.363 490.028 236.481 492.542 240.232C498.093 248.537 499.728 258.458 498.28 268.275C497.261 275.163 494.804 281.579 492.458 288.117C490.926 292.378 490.692 295.969 496.009 297.018C511.259 300.032 525.416 283.742 532.247 272.073C536.49 264.836 539.611 256.625 540.134 248.178C540.545 241.63 537.592 235.971 533.658 230.972C529.528 225.738 524.454 221.439 519.744 216.8C518.072 215.146 513.287 211.282 515.418 209.487C517.875 207.408 522.977 207.266 525.977 207.332C530.226 207.501 534.417 208.385 538.377 209.949C546.584 213.157 554.05 218.04 560.309 224.292C564.439 228.336 569.13 233.42 570.177 239.41C570.906 243.492 577.213 241.715 576.475 237.549Z" fill="#403128"/>
<path d="M369.108 138.396C368.444 153.797 343.961 153.825 343.289 138.396C343.102 134.154 336.56 134.135 336.747 138.396C336.98 143.426 339.142 148.167 342.774 151.612C346.406 155.057 351.223 156.935 356.203 156.849C366.594 156.849 375.2 148.978 375.649 138.434C375.836 134.182 369.294 134.191 369.108 138.434V138.396Z" fill="#403128"/>
<path d="M401.537 138.396C400.874 153.797 376.391 153.825 375.718 138.396C375.532 134.154 368.99 134.135 369.177 138.396C369.41 143.424 371.57 148.164 375.201 151.608C378.831 155.053 383.645 156.933 388.623 156.849C399.014 156.849 407.621 148.978 408.069 138.434C408.256 134.182 401.715 134.191 401.528 138.434L401.537 138.396Z" fill="#403128"/>
<path d="M384.73 157.291C384.066 172.692 359.583 172.721 358.911 157.291C358.724 153.049 352.183 153.03 352.369 157.291C352.602 162.32 354.762 167.059 358.393 170.504C362.023 173.949 366.838 175.828 371.815 175.744C382.207 175.744 390.813 167.874 391.261 157.329C391.448 153.077 384.907 153.087 384.72 157.329L384.73 157.291Z" fill="#403128"/>
<path d="M435.2 110.163C434.761 97.8802 424.547 88.7246 412.511 88.7246C400.475 88.7246 390.271 97.8897 389.823 110.163C389.673 114.425 396.214 114.415 396.364 110.163C397.065 90.8222 427.958 90.8127 428.649 110.163C428.799 114.406 435.34 114.425 435.191 110.163H435.2Z" fill="#403128"/>
<path d="M357.675 109.607C357.236 97.3236 347.022 88.168 334.986 88.168C322.951 88.168 312.746 97.3236 312.307 109.607C312.158 113.868 318.699 113.858 318.848 109.607C319.549 90.2655 350.442 90.2561 351.134 109.607C351.283 113.849 357.824 113.868 357.675 109.607Z" fill="#403128"/>
<path d="M384.512 128.843C384.11 132.273 376.569 134.428 374.018 134.673C370.448 135.013 362.58 133.558 361.02 129.458C360.646 128.513 360.151 130.11 361.02 128.787C361.506 128.078 363.047 127.842 363.823 127.558C366.386 126.789 369.046 126.398 371.719 126.396C374.037 126.349 384.129 126.283 384.624 129.722C385.222 133.917 391.52 132.132 390.932 127.965C389.754 119.659 375.158 119.461 369.28 119.896C363.888 120.34 352.133 122.57 354.329 130.629C356.394 138.188 367.215 141.75 374.009 141.287C380.802 140.824 390.137 136.563 391.044 128.843C391.586 124.62 385.035 124.658 384.512 128.843Z" fill="#403128"/>
<path d="M367.997 149.508L367.652 155.924C367.652 156.801 367.996 157.642 368.609 158.262C369.223 158.882 370.054 159.231 370.922 159.231C371.789 159.231 372.62 158.882 373.234 158.262C373.847 157.642 374.191 156.801 374.191 155.924L374.546 149.508C374.546 148.631 374.202 147.79 373.589 147.17C372.975 146.55 372.144 146.201 371.277 146.201C370.409 146.201 369.578 146.55 368.964 147.17C368.351 147.79 368.007 148.631 368.007 149.508H367.997Z" fill="#403128"/>
<path d="M387.066 300.775C387.066 352.147 455.001 402.13 404.194 402.13C379.796 402.13 356.398 392.33 339.146 374.886C321.894 357.442 312.202 333.783 312.202 309.114C312.202 284.444 321.894 260.785 339.146 243.341C356.398 225.898 379.796 216.098 404.194 216.098C455.001 216.088 387.066 249.394 387.066 300.775Z" fill="#403128"/>
<path d="M242.119 214.501V400.514C266.354 400.267 289.513 390.359 306.564 372.944C323.615 355.529 333.18 332.013 333.18 307.507C333.18 283.002 323.615 259.486 306.564 242.071C289.513 224.656 266.354 214.748 242.119 214.501Z" fill="#403128"/>
<path d="M383.741 298.35C383.91 316.255 391.217 333.026 399.562 348.427C403.561 355.816 407.972 362.997 412.037 370.329C414.906 375.45 418.12 380.873 419.382 386.684C422.344 400.347 397.833 396.454 390.843 395.377C371.306 392.33 353.321 382.812 339.71 368.316C311.527 338.279 307.667 291.254 330.365 256.824C341.335 240.241 357.44 227.811 376.154 221.486C385.866 218.258 396.051 216.728 406.271 216.961C409.747 217.036 417.232 216.876 419.354 219.634C419.961 220.419 419.737 221.449 419.195 222.998C418.207 225.431 416.926 227.732 415.382 229.848C411.383 235.905 406.879 241.593 402.758 247.564C392.348 262.682 383.882 279.519 383.695 298.303C383.695 302.564 390.236 302.564 390.236 298.303C390.413 279.85 399.45 263.608 409.757 248.963C413.794 243.227 418.167 237.719 421.905 231.766C424.203 228.11 427.007 223.376 425.988 218.841C424.932 214.117 420.269 212.104 416.008 211.282C407.234 209.534 397.796 210.186 389.021 211.556C367.969 214.955 348.654 225.399 334.169 241.215C304.63 273.538 300.528 323.767 324.955 360.332C336.615 377.772 353.548 390.922 373.219 397.815C383.506 401.397 394.328 403.148 405.206 402.992C411.14 402.898 418.559 402.397 423.026 397.862C431.772 388.98 421.157 373.107 416.485 364.934C407.065 348.371 396.506 331.921 392.077 313.109C390.933 308.273 390.331 303.322 390.283 298.35C390.245 294.089 383.704 294.079 383.741 298.35Z" fill="#403128"/>
<path d="M235.412 212.502V398.505L238.683 395.198C202.08 394.688 168.505 371.284 155.946 336.287C151.082 322.783 149.495 308.295 151.32 294.043C153.145 279.79 158.328 266.189 166.433 254.383C174.538 242.576 185.328 232.911 197.896 226.198C210.464 219.486 224.442 215.923 238.655 215.809C242.86 215.752 242.869 209.138 238.655 209.195C199.025 209.743 163.123 235.15 149.611 272.963C136.192 310.634 148.013 354.201 178.532 379.608C195.486 393.719 216.697 401.556 238.655 401.822C239.519 401.809 240.343 401.457 240.954 400.839C241.565 400.222 241.913 399.388 241.926 398.515V212.502C241.954 208.25 235.412 208.24 235.412 212.502Z" fill="#403128"/>
<path d="M238.792 212.074V398.087C238.804 398.961 239.153 399.795 239.764 400.412C240.374 401.03 238.9 401.558 239.764 401.57C279.394 401.022 317.595 375.439 331.107 337.626C344.563 299.983 332.752 256.369 302.223 230.934C285.256 216.83 264.035 209.006 242.072 208.758C241.56 208.751 225.067 210.131 224.68 210.297C221.877 211.499 238.37 215.322 242.072 215.372C278.675 215.882 312.25 239.286 324.809 274.283C329.676 287.79 331.264 302.281 329.438 316.537C327.613 330.793 322.428 344.398 314.32 356.206C306.211 368.014 295.417 377.68 282.844 384.391C270.272 391.102 256.289 394.662 242.072 394.771L245.343 398.078V212.074C245.335 208.524 240.793 207.932 239.278 210.297C238.974 210.771 238.792 211.363 238.792 212.074Z" fill="#403128"/>
<path d="M214.781 279.328C213.706 258.23 181.57 258.22 180.496 279.328C180.281 283.58 186.822 283.571 187.037 279.328C187.682 266.734 207.595 266.715 208.24 279.328C208.455 283.561 214.996 283.59 214.781 279.328Z" fill="#403128"/>
<path d="M275.8 334.142C289.181 331.194 296.788 317.456 294.274 304.18C291.714 290.65 279.5 281.447 266.007 283.498C261.858 284.131 263.624 290.499 267.745 289.875C290.106 286.474 296.05 322.945 274.052 327.764C269.941 328.709 271.679 335.049 275.791 334.142H275.8Z" fill="#403128"/>
<path d="M188.93 302.837C183.566 317.51 168.512 326.874 153.299 321.885C149.29 320.571 147.571 326.949 151.561 328.263C170.344 334.423 188.687 322.499 195.238 304.641C196.705 300.645 190.378 298.915 188.93 302.884V302.837Z" fill="#403128"/>
</svg>
