<svg width="257" height="84" viewBox="0 0 257 84" fill="none" xmlns="http://www.w3.org/2000/svg">
<path d="M22.4844 8.3248C26.5286 6.99754 31.7254 10.9053 34.0966 17.1218C36.4615 23.3022 35.1566 29.4059 31.1186 30.7693C27.1158 32.1267 21.8838 28.225 19.4775 22.0145C17.0774 15.8401 18.4527 9.72435 22.4844 8.3248ZM47.629 4.00584C51.9318 3.9738 55.2338 9.28619 55.1019 15.8954C54.8707 22.559 51.2757 27.9769 47.0142 28.039C42.7176 28.1072 39.4507 22.7888 39.653 16.1674C39.8139 9.51599 43.4089 4.0981 47.629 4.00584ZM6.52594 28.1836C10.2308 25.7238 16.2343 28.0046 20.0451 33.1179C23.6988 38.3699 23.8151 44.5272 20.1454 46.9809C16.4757 49.4346 10.5136 47.184 6.76068 41.9863C3.00772 36.7886 2.95556 30.5831 6.52594 28.1836ZM69.8269 17.3107C73.9933 18.3813 76.0148 24.2485 74.2114 30.4006C72.4079 36.5528 67.5385 40.6638 63.2604 39.5753C58.9823 38.4867 57.0373 32.6435 58.729 26.4734C60.6153 20.3815 65.5136 16.2282 69.8269 17.3107ZM70.6469 57.2848C71.3711 60.6584 69.4848 64.8525 66.7026 66.7817C60.9167 70.8269 52.4058 65.9627 45.4076 67.1647C38.4093 68.3668 31.9824 76.0573 25.2404 73.9034C21.4195 72.7363 18.1858 68.4541 17.9725 64.4719C17.6804 58.9774 23.4786 55.0044 26.5296 50.4242C30.6128 44.4759 32.4842 34.2932 39.5528 33.0791C46.5863 31.871 51.9344 40.6648 57.5823 45.0905C62.2433 48.8298 69.3887 51.4353 70.6469 57.2848Z" fill="#403128"/>
<path d="M87.8841 47.1228C89.8077 47.5772 90.9392 50.3499 90.3967 53.3438C89.8604 56.3221 87.8845 58.3885 85.9547 57.9497C84.0403 57.517 82.8934 54.7382 83.4205 51.7382C83.9413 48.7538 85.9481 46.6995 87.8841 47.1228ZM98.9049 51.4817C100.622 52.5033 100.665 55.3684 99.0347 57.9139C97.3516 60.4566 94.6296 61.7053 92.9218 60.7053C91.1985 59.6993 91.1706 56.8403 92.8321 54.307C94.4843 51.7521 97.2063 50.5034 98.9049 51.4817ZM76.8019 51.031C78.8611 50.9623 80.7016 53.2945 80.9946 56.2042C81.192 59.1302 79.7678 61.5591 77.724 61.634C75.6802 61.7088 73.8489 59.3983 73.5991 56.4696C73.3493 53.5409 74.8104 51.1086 76.8019 51.031ZM104.547 62.0046C105.946 63.4234 105.348 66.1971 103.163 68.1626C100.977 70.1281 98.061 70.5608 96.6213 69.1082C95.1817 67.6555 95.8043 64.9096 97.9497 62.9103C100.154 60.9881 103.092 60.5459 104.547 62.0046ZM95.327 77.789C94.8091 79.2785 93.0582 80.4606 91.4922 80.5442C88.2276 80.731 86.0079 76.7888 82.9405 75.5756C79.8732 74.3625 75.4834 75.8167 73.3193 73.3565C72.08 71.9831 71.8178 69.5362 72.684 67.9321C73.88 65.7194 77.1323 65.5637 79.4381 64.511C82.4807 63.1728 85.6558 59.652 88.7539 60.8774C91.8367 62.0967 91.8615 66.811 93.0485 69.8941C94.0073 72.4724 96.2239 75.2057 95.327 77.789Z" fill="#403128"/>
<path d="M113.066 67V37.39H118.484L128.48 55.576L138.434 37.39H143.768V67H137.846V48.94L130.202 62.548H126.548L118.946 49.066V67H113.066ZM150.823 74.56L154.771 65.866L146.287 46.378H152.965L158.131 59.482L163.465 46.378H169.765L157.291 74.56H150.823ZM172.168 67V37.39H185.692C188.996 37.39 191.544 38.23 193.336 39.91C195.128 41.562 196.024 43.872 196.024 46.84C196.024 49.808 195.128 52.132 193.336 53.812C191.544 55.492 188.996 56.332 185.692 56.332H178.678V67H172.168ZM178.678 51.292H184.6C188.044 51.292 189.766 49.808 189.766 46.84C189.766 43.928 188.044 42.472 184.6 42.472H178.678V51.292ZM209.074 67.462C206.638 67.462 204.538 67.028 202.774 66.16C201.038 65.264 199.694 64.018 198.742 62.422C197.818 60.798 197.356 58.894 197.356 56.71C197.356 54.582 197.804 52.72 198.7 51.124C199.624 49.5 200.87 48.24 202.438 47.344C204.034 46.42 205.868 45.958 207.94 45.958C210.936 45.958 213.316 46.91 215.08 48.814C216.844 50.69 217.726 53.238 217.726 56.458V58.054H203.404C203.628 59.678 204.216 60.868 205.168 61.624C206.148 62.352 207.492 62.716 209.2 62.716C210.32 62.716 211.454 62.548 212.602 62.212C213.75 61.876 214.786 61.358 215.71 60.658L217.39 64.9C216.354 65.684 215.08 66.314 213.568 66.79C212.084 67.238 210.586 67.462 209.074 67.462ZM208.192 50.158C206.848 50.158 205.756 50.564 204.916 51.376C204.104 52.188 203.6 53.322 203.404 54.778H212.476C212.308 51.698 210.88 50.158 208.192 50.158ZM231.413 67.462C225.617 67.462 222.719 64.648 222.719 59.02V51.124H218.813V46.378H222.719V40.33H229.061V46.378H235.151V51.124H229.061V58.768C229.061 59.944 229.327 60.826 229.859 61.414C230.419 62.002 231.301 62.296 232.505 62.296C232.869 62.296 233.247 62.254 233.639 62.17C234.059 62.086 234.507 61.974 234.983 61.834L235.907 66.454C235.319 66.762 234.619 67 233.807 67.168C232.995 67.364 232.197 67.462 231.413 67.462ZM246.168 67.462C244.348 67.462 242.654 67.252 241.086 66.832C239.518 66.412 238.216 65.838 237.18 65.11L238.692 60.994C239.728 61.638 240.904 62.156 242.22 62.548C243.564 62.912 244.894 63.094 246.21 63.094C247.386 63.094 248.254 62.912 248.814 62.548C249.374 62.156 249.654 61.652 249.654 61.036C249.654 60.056 248.94 59.44 247.512 59.188L243.102 58.39C241.338 58.082 239.994 57.452 239.07 56.5C238.146 55.548 237.684 54.302 237.684 52.762C237.684 51.362 238.076 50.158 238.86 49.15C239.644 48.142 240.722 47.358 242.094 46.798C243.466 46.238 245.048 45.958 246.84 45.958C248.324 45.958 249.766 46.154 251.166 46.546C252.566 46.91 253.77 47.498 254.778 48.31L253.182 52.384C252.342 51.768 251.334 51.264 250.158 50.872C249.01 50.48 247.932 50.284 246.924 50.284C245.664 50.284 244.754 50.494 244.194 50.914C243.634 51.306 243.354 51.81 243.354 52.426C243.354 53.406 244.012 54.022 245.328 54.274L249.738 55.072C251.558 55.38 252.944 55.996 253.896 56.92C254.848 57.816 255.324 59.048 255.324 60.616C255.324 62.772 254.484 64.452 252.804 65.656C251.124 66.86 248.912 67.462 246.168 67.462Z" fill="#403128"/>
</svg>
